<?xml version="1.0" encoding="UTF-8"?>
<!-- Generator: Adobe Illustrator 26.0.0, SVG Export Plug-In . SVG Version: 6.00 Build 0)  -->
<svg version="1.1" id="san-x" xmlns="http://www.w3.org/2000/svg" xmlns:xlink="http://www.w3.org/1999/xlink" x="0px" y="0px" viewBox="0 0 483 129.6" style="enable-background:new 0 0 483 129.6;" xml:space="preserve">
<style type="text/css">
	.st0{fill:#00ACEB;}
	.st1{fill:#A1C90F;}
</style>
<path class="st0" d="M91.2,92.9c0-0.1,0.1-0.2,0.1-0.2c1.6-6.7,3.8-23.1-9.7-32.2c-7.1-6.3-16.7-5.5-25.9-4.7  c-8.3,0.7-16.1,1.3-21.6-2.9c-3.5-3.5-2.6-8.1-1.7-12.9c0.1-0.7,0.3-1.4,0.4-2c2.4-7.9,10.7-13,21.6-15.2c7.9-1.3,14.3,1.5,15.6,2.3  c1.4,0.9,2.4,1.8,4.6,2.7c2.9,1.1,7.7,2.4,10.3,1.5c1.1-0.4,1.7-0.6,1.9-0.7l0.5-0.4c2.3-1.8,6.1-4.9,4.4-9.4c0,0.1,0.1,0.2,0.1,0.3  C90,11.1,80.6,7.1,78.8,6.5c-1.8-0.6-3.5-1.7-8.9-2.2c-11.3-1-30.9,1-41.2,7.5c-5.6,3.5-7.9,6.1-8.5,7.2c-0.6,1.1-5,6.5-8.3,16  c-4.5,13.3,1.5,23,8,29.8c10.2,9.6,26.9,8.3,40.3,7.2c0,0,3.5,0.3,5.1,1.5c1,0.8,3.9,4,4.9,6.3c1.7,7-0.8,12.7-5.9,18.2  c-7.8,7.3-18.1,15.4-30.3,12.6c-3.6-0.8-4.1-2.9-5-6.7c-0.3-1.3-0.6-2.7-1.1-4c0-0.1-0.1-0.2-0.1-0.2c-2.9-5.6-7.7-5.4-11.1-6  c-3.3-0.6-8.9,1.2-10.8,4.4c-1.8,3.2-2.3,5.3-1.7,8.5c1.2,7,6.3,13.5,9.8,16.1c2.9,2.1,6.9,4.5,14,5.9c10,2.1,14.2,0.4,19.7-0.6  c5.5-1,14.7-3.7,24.5-10.7C81,111.2,88.2,101.3,91.2,92.9z"/>
<path class="st0" d="M289.9,88.4c-3.7-4-3.6-3.5-6.7-3.5c-4.8,0-14.9,19.7-18.9,16.8c-2.2-1.6,5.1-42.3-4.1-49  c-4.3-1.9-10.2-4.7-13.6-3.4c-3.4,1.4-12.4,19.7-23.3,35.6c-2.4-8.6,1.6-28.3-3.8-34.4c-5.5-3.3-12.2-5.3-17.3-0.4  C187.9,82,182.5,88.4,177.4,95c0,0-1.2,0.6-1.7-0.5c-2.2-4.2-6.2-16.7-6.8-17.4c-4.7-12-5-19.4-7.6-21.3c-1.5-1.1-3.6-4.6-7.6-6.3  c-4-1.6-19.6-6.4-28.1-2.8c-6.8,3.4-10.1,10.7-13.9,16.8c-8.2,14.7-14.8,33.9-10.2,48.1c2.7,8.5,10.1,16.8,22,15.3  c21-4.5,32.2-26.9,33.5-27.7c1.3-0.8,1.1-0.2,1.4,0.6c2.4,6.9,8.4,18.6,17.1,18.1c10.7-0.6,23.3-23.6,29.4-37.3  c0.1,0.3,1,0.2,1.1,0.8c0.6,6.8-1.9,29.5-1.9,32.5c0.8,5.3,6.9,12.7,13.9,10.4c7.1-2.2,16.1-29.8,26.6-43.6  c2.8,11-2.7,40.3,9.2,43.7c10.6,3,24-9,35.5-21.6C293.2,98.9,292.3,90.8,289.9,88.4z M146.2,75.5c-2.4,11.2-8.3,23.7-20.5,31.2  c-3,1.4-7.2-0.9-7.5-5.3c1.5-17.1,11.7-34.5,15.4-36.2c3.4-1.6,9.1,1.5,11.2,3.3C146.7,70.3,146.2,75.5,146.2,75.5z"/>
<path class="st0" d="M315.9,87.3c6.3,0.1,21,0.8,32.7-0.2c3.4-1.1,4.5-4.8,4.8-8.3c0.3-3.5-2.9-7.7-5-7.8  c-2.2-0.1-13.6-1.5-32.8-0.1C306.3,71.7,308.5,87.2,315.9,87.3z"/>
<path class="st1" d="M460.6,84.2C441.8,78,426.5,73,426.5,73s5.2,15.1,11.6,33.7c6.4,18.6,21.7,23.6,34.1,11.3  C484.7,105.6,479.5,90.5,460.6,84.2z"/>
<path class="st1" d="M471.4,27.2C459,14.8,444,20,437.8,38.9C431.5,57.7,426.5,73,426.5,73s15.1-5.2,33.7-11.6  C478.8,54.9,483.8,39.6,471.4,27.2z"/>
<path class="st1" d="M380.7,28c-12.4,12.4-7.2,27.5,11.6,33.7c18.8,6.2,34.1,11.3,34.1,11.3s-5.2-15.1-11.6-33.7  C408.4,20.7,393.2,15.7,380.7,28z"/>
<path class="st1" d="M392.8,84.6c-18.6,6.4-23.6,21.7-11.3,34.1c12.4,12.4,27.5,7.2,33.7-11.6c6.2-18.8,11.3-34.1,11.3-34.1  S411.4,78.2,392.8,84.6z"/>
</svg>